<svg viewBox="0 0 172 254" xmlns="http://www.w3.org/2000/svg">
  <path d="M71.86,58.84c29.74,7.59,47.41,18.62,51.4,27.15,4.87,10.38-9.4,17.33-42.92,10.83-17.32-3.36-26.18-.99-29.16,3.08-13.19,17.99,32.52,48.75,53.78,61.33C1.75,135.5-45.38,206.04,88.43,235.07c11.45,2.48,33.41,3.37,33.35,6.67,0,3.54-56.42,3.84-86.17,4.75,20.3,5.43,69.09,9.12,100.82,6.11,30.84-2.92,44.31-13.39,5.41-22.96-20.07-4.94-98.75-19.86-90.46-35.76,12.11-23.22,64.43-17.63,94.92-20.8-74.95-51.53-91.96-63.67,9.76-50.41,26.61,5.91-11.26-37.4-50.95-55.51-9.32-3.7-21.75-6.56-33.25-8.33" fill="#61afee" />
</svg>
